<svg xmlns="http://www.w3.org/2000/svg" aria-hidden="true" style="position: absolute; width: 0; height: 0; overflow: hidden;" version="1.1"><defs>
<symbol id="icon-eye" viewBox="0 0 32 32">
<path d="M14.853 3.792c-3.019 0.246-5.947 1.514-8.72 3.773-0.738 0.602-2.405 2.27-3.075 3.080-0.951 1.138-1.852 2.4-2.654 3.73l-0.076 0.136-0.328 0.563v1.853l0.328 0.563c1.241 2.101 2.658 3.915 4.279 5.525l0.002 0.001c1.693 1.686 3.133 2.75 4.976 3.672 1.89 0.946 3.477 1.386 5.549 1.534 3.248 0.232 6.554-0.771 9.587-2.909 1.688-1.19 3.664-3.157 5.157-5.131 0.528-0.701 1.394-2 1.797-2.701l0.326-0.566v-1.83l-0.326-0.566c-0.636-1.060-1.229-1.941-1.861-2.791l0.064 0.090c-1.493-1.973-3.454-3.926-5.157-5.133-3.086-2.186-6.451-3.173-9.867-2.893zM17.787 7.088c1.99 0.37 3.866 1.242 5.626 2.611 1.214 0.947 2.56 2.314 3.667 3.728 0.574 0.734 1.72 2.446 1.72 2.573s-1.146 1.838-1.72 2.573c-1.107 1.414-2.453 2.781-3.667 3.728-1.763 1.373-3.622 2.235-5.653 2.619-0.886 0.168-2.634 0.168-3.52 0-2.309-0.437-4.349-1.462-6.347-3.192-1.153-1.022-2.185-2.129-3.104-3.328l-0.041-0.056c-0.592-0.776-1.547-2.224-1.547-2.344s0.955-1.568 1.547-2.344c0.961-1.255 1.993-2.363 3.121-3.364l0.024-0.021c2.006-1.73 4.115-2.79 6.32-3.178 0.835-0.146 0.906-0.15 2-0.131 0.707 0.011 1.154 0.048 1.574 0.126zM15.267 10.453c-1.265 0.186-2.37 0.762-3.216 1.599l0.001-0.001c-1.012 1.010-1.637 2.406-1.637 3.948 0 1.153 0.35 2.224 0.949 3.114l-0.013-0.020c0.754 1.146 1.915 1.963 3.309 2.333 0.446 0.118 0.624 0.136 1.341 0.136 0.722 0 0.894-0.018 1.352-0.139 2.005-0.518 3.552-2.066 4.062-4.031l0.009-0.039c0.122-0.458 0.139-0.63 0.139-1.352s-0.018-0.894-0.139-1.352c-0.648-2.451-2.718-4.128-5.206-4.219-0.089-0.004-0.193-0.006-0.298-0.006-0.229 0-0.456 0.011-0.679 0.033l0.028-0.002zM16.616 13.683c1.029 0.29 1.773 1.215 1.784 2.316v0.001c0 1.307-1.093 2.4-2.4 2.4-1.102-0.011-2.027-0.755-2.313-1.767l-0.004-0.017c-0.050-0.183-0.079-0.393-0.079-0.61 0-1.326 1.075-2.402 2.402-2.402 0.217 0 0.427 0.029 0.627 0.083l-0.017-0.004z"></path>
</symbol>
<symbol id="icon-eye-off" viewBox="0 0 32 32">
<path d="M0.213 0.213l-0.213 0.214v1.835l5.699 5.71-0.627 0.568c-1.67 1.51-3.581 3.931-4.771 6.045l-0.301 0.534v1.806l0.328 0.563c1.241 2.101 2.658 3.915 4.279 5.525l0.002 0.001c1.693 1.686 3.133 2.75 4.976 3.672 1.405 0.735 3.041 1.258 4.773 1.473l0.070 0.007c0.763 0.093 2.477 0.077 3.253-0.030 2.151-0.288 4.093-0.98 5.817-2.001l-0.071 0.039 0.307-0.174 6.005 5.998h1.835l0.214-0.213 0.213-0.214v-1.838l-29.734-29.734h-1.838l-0.214 0.213zM14.778 3.792c-0.734 0.066-1.795 0.254-2.128 0.379-0.361 0.144-0.653 0.396-0.844 0.715l-0.004 0.008c-0.184 0.314-0.229 0.891-0.099 1.282 0.178 0.531 0.746 0.994 1.304 1.059 0.154 0.019 0.466-0.011 0.81-0.078 2.525-0.494 4.934-0.142 7.296 1.066 0.957 0.49 2.147 1.302 3.021 2.062 0.886 0.771 2.123 2.091 2.947 3.142 0.546 0.696 1.72 2.445 1.72 2.56 0 0.184-1.106 1.819-1.928 2.853-0.178 0.215-0.351 0.453-0.507 0.702l-0.016 0.028c-0.253 0.496-0.184 1.149 0.171 1.63 0.547 0.739 1.642 0.858 2.309 0.25 0.592-0.539 2.229-2.856 2.95-4.174l0.221-0.405v-1.797l-0.328-0.563c-0.419-0.718-1.28-2.010-1.795-2.693-1.493-1.973-3.454-3.926-5.157-5.133-1.36-0.963-3.024-1.81-4.48-2.278-1.287-0.419-2.768-0.661-4.306-0.661-0.407 0-0.81 0.017-1.209 0.050l0.052-0.003zM10.832 13.762c-0.328 0.687-0.52 1.494-0.52 2.345 0 1.54 0.628 2.934 1.641 3.939l0 0c1.006 1.013 2.4 1.641 3.94 1.641 0.851 0 1.657-0.191 2.378-0.534l-0.034 0.014 0.451-0.211 2.701 2.696-0.562 0.272c-1.573 0.763-3.686 1.205-5.362 1.123-3.834-0.187-7.57-2.542-10.797-6.802-0.523-0.693-1.47-2.133-1.47-2.237 0-0.102 0.587-1.037 1.114-1.77 0.926-1.281 1.92-2.406 3.012-3.428l0.013-0.012 0.624-0.57 3.080 3.080-0.211 0.451zM15.981 18.496c-0.307 0.021-0.872-0.112-1.218-0.288-0.738-0.374-1.27-1.275-1.27-2.152v-0.296l2.722 2.72-0.234 0.016z"></path>
</symbol>
<symbol id="icon-I" viewBox="0 0 32 32">
<path d="M12.843 16.768v15.232h5.333v-30.464h-5.333v15.232z"></path>
</symbol>
<symbol id="icon-map-pin" viewBox="0 0 32 32">
<path d="M13.424 0.082c-2.234 0.457-4.197 1.395-5.853 2.704l0.029-0.022c-0.781 0.68-1.49 1.389-2.148 2.144l-0.022 0.026c-1.817 2.274-2.915 5.19-2.915 8.363 0 0.827 0.075 1.637 0.218 2.423l-0.012-0.082c0.556 3.126 2.286 6.404 5.11 9.69 1.858 2.16 4.756 4.786 7.030 6.37l0.434 0.302h1.412l0.434-0.302c1.672-1.166 3.866-3.046 5.5-4.718 2.3-2.354 3.914-4.534 5.086-6.874 0.844-1.684 1.282-2.946 1.554-4.468 0.131-0.704 0.205-1.514 0.205-2.341 0-3.173-1.099-6.090-2.936-8.39l0.021 0.027c-0.68-0.781-1.389-1.49-2.144-2.148l-0.026-0.022c-1.597-1.268-3.523-2.196-5.627-2.638l-0.089-0.016c-0.496-0.102-0.718-0.11-2.72-0.104-1.594 0.002-2.274 0.024-2.54 0.076zM17.022 2.882c1.372 0.142 2.625 0.53 3.756 1.119l-0.058-0.027c2.026 1.011 3.629 2.614 4.613 4.581l0.027 0.059c1.36 2.712 1.5 5.514 0.422 8.486-1.238 3.418-4.194 7.168-8.342 10.586-0.81 0.666-1.388 1.114-1.44 1.114-0.098 0-1.686-1.294-2.746-2.236-1.093-0.995-2.102-2.014-3.056-3.083l-0.036-0.041c-2.714-3.138-4.214-6.066-4.588-8.95-0.252-1.954 0.116-3.982 1.066-5.876 1.011-2.026 2.614-3.629 4.581-4.613l0.059-0.027c1.373-0.72 2.999-1.142 4.724-1.142 0.358 0 0.713 0.018 1.062 0.054l-0.044-0.004zM15.040 7.924c-2.275 0.425-4.040 2.198-4.445 4.444l-0.005 0.034c-0.050 0.278-0.078 0.598-0.078 0.925 0 2.703 1.952 4.951 4.523 5.41l0.033 0.005c0.279 0.050 0.599 0.079 0.927 0.079 2.703 0 4.951-1.952 5.41-4.523l0.005-0.033c0.050-0.278 0.078-0.598 0.078-0.925 0-2.703-1.952-4.951-4.523-5.41l-0.033-0.005c-0.57-0.1-1.34-0.1-1.892 0zM16.862 10.984c0.892 0.334 1.538 1.178 1.624 2.124 0.006 0.063 0.009 0.137 0.009 0.212 0 1.247-0.909 2.282-2.1 2.478l-0.015 0.002c-1.984 0.308-3.504-1.77-2.618-3.574 0.314-0.638 1.030-1.202 1.704-1.344 0.362-0.076 1.054-0.026 1.396 0.102z"></path>
</symbol>
<symbol id="icon-user" viewBox="0 0 32 32">
<path d="M15.244 5.387c-1.341 0.213-2.593 0.928-3.396 1.936-2.24 2.816-1.141 6.975 2.193 8.3 2.721 1.080 5.829-0.267 6.915-2.997 0.911-2.293 0.096-4.965-1.936-6.345-0.501-0.33-1.080-0.599-1.698-0.776l-0.045-0.011c-0.515-0.125-1.567-0.181-2.033-0.107zM14.533 18.724c-2.823 0.199-5.312 0.932-7.067 2.083-0.719 0.471-1.455 1.224-1.747 1.787-0.353 0.679-0.385 0.896-0.385 2.593l-0.001 1.48h21.333l-0.001-1.48c0-1.129-0.019-1.561-0.080-1.82-0.269-1.144-1.353-2.269-2.984-3.1-2.352-1.197-5.756-1.776-9.068-1.543z"></path>
</symbol>
<symbol id="icon-arrow-right" viewBox="0 0 32 32">
<path fill="#fbfbfb" style="fill: var(--color1, #fbfbfb)" d="M19.478 4.246c-0.198 0.094-0.369 0.21-0.518 0.348l0.001-0.001c-0.354 0.323-0.509 0.685-0.509 1.187 0 0.682-0.123 0.542 4.158 4.672 2.112 2.040 3.842 3.725 3.842 3.747s-0.197 0.040-0.44 0.040c-0.79-0.002-22.278 0.371-23.373 0.405l-1.067 0.032 0.018 1.555c0.010 0.854 0.034 1.571 0.054 1.59 0.019 0.021 5.363-0.058 11.875-0.173s12.099-0.205 12.416-0.197l0.578 0.014-3.71 3.84c-4.117 4.259-4.002 4.122-3.998 4.797 0.003 0.81 0.504 1.4 1.339 1.578 0.334 0.072 0.814-0.030 1.12-0.238 0.106-0.072 2.496-2.514 5.31-5.427 5.477-5.667 5.357-5.531 5.414-6.13 0.003-0.038 0.005-0.083 0.005-0.127 0-0.349-0.115-0.67-0.309-0.929l0.003 0.004c-0.318-0.427-10.586-10.304-10.898-10.483-0.222-0.128-0.344-0.158-0.678-0.171-0.272-0.011-0.48 0.010-0.634 0.067z"></path>
</symbol>
<symbol id="icon-arrow-right-up" viewBox="0 0 32 32">
<path fill="#fbfbfb" style="fill: var(--color1, #fbfbfb)" d="M16.388 2.752c-9.374 1.327-8.717 1.208-9.203 1.668-0.362 0.335-0.588 0.812-0.588 1.342 0 0.492 0.195 0.939 0.511 1.267l-0.001-0.001c0.269 0.304 0.634 0.517 1.047 0.593l0.011 0.002c0.265 0.051 0.627 0.006 6.511-0.821 3.428-0.482 6.248-0.872 6.268-0.864s-3.921 5.265-8.759 11.686c-4.838 6.419-8.796 11.686-8.798 11.704 0.771 0.62 1.73 1.352 2.705 2.064l0.241 0.168c0.028 0.009 3.996-5.218 8.817-11.618 4.823-6.4 8.785-11.657 8.808-11.682s0.047-0.034 0.056-0.023c0.011 0.011 0.309 2.095 0.664 4.632 1.173 8.369 1.090 7.821 1.25 8.147 0.678 1.378 2.686 1.384 3.36 0.009 0.29-0.597 0.361 0.096-0.979-9.438-0.664-4.715-1.239-8.664-1.278-8.774-0.175-0.496-0.532-0.889-0.99-1.107l-0.012-0.005c-0.535-0.248-0.299-0.273-9.643 1.048z"></path>
</symbol>
<symbol id="icon-favourite" viewBox="0 0 32 32">
<path d="M8.453 2.832c-2.569 0.267-4.942 1.769-6.329 4.005-0.798 1.268-1.271 2.81-1.271 4.463 0 0.012 0 0.023 0 0.035v-0.002c0 1.903 0.564 3.58 1.748 5.199 0.375 0.513 12.474 12.644 12.81 12.843s0.843 0.199 1.179 0c0.336-0.199 12.434-12.33 12.81-12.843 1.184-1.618 1.748-3.296 1.748-5.199 0-0.013 0-0.028 0-0.043 0-2.332-0.944-4.443-2.472-5.971l0 0c-1.788-1.804-4.293-2.729-6.769-2.501-1.172 0.107-1.969 0.319-2.946 0.779-0.956 0.45-1.583 0.894-2.414 1.703l-0.546 0.534-0.546-0.534c-0.831-0.81-1.457-1.253-2.414-1.703-1.067-0.515-2.321-0.816-3.645-0.816-0.332 0-0.66 0.019-0.982 0.056l0.039-0.004zM10.345 5.31c0.665 0.116 1.261 0.311 1.814 0.58l-0.040-0.018c0.668 0.335 1.093 0.671 2.122 1.68 0.572 0.561 1.124 1.063 1.227 1.118 0.252 0.132 0.814 0.132 1.066 0 0.103-0.054 0.655-0.558 1.227-1.119 0.608-0.598 1.199-1.126 1.424-1.275 0.968-0.651 2.16-1.040 3.443-1.040 0.104 0 0.207 0.003 0.309 0.008l-0.014-0.001c0.79 0.046 1.359 0.185 2.166 0.53 1.502 0.642 2.751 2.010 3.28 3.59 0.207 0.588 0.327 1.265 0.327 1.971 0 1.365-0.449 2.626-1.206 3.642l0.012-0.016c-0.208 0.283-2.187 2.303-5.906 6.027l-5.594 5.6-5.594-5.6c-3.719-3.724-5.698-5.744-5.906-6.027-1.586-2.165-1.594-5.105-0.015-7.227 1.028-1.381 2.398-2.186 4.208-2.47 0.332-0.053 1.191-0.028 1.652 0.047z"></path>
</symbol>
<symbol id="icon-check" viewBox="0 0 40 32">
<path fill="#fbfbfb" style="fill: var(--color1, #fbfbfb)" d="M5 11l-5 5 15 15 25-25-5-5-20 20-10-10z"></path>
</symbol>
<symbol id="icon-NannyServices" viewBox="0 0 225 32">
<path fill="#fbfbfb" style="fill: var(--color1, #fbfbfb)" d="M0.979 1.202h4.408l10.886 17.564h0.067v-17.564h3.974v23.841h-4.408l-10.852-17.53h-0.1v17.53h-3.974v-23.841zM38.501 21.203c0 0.467 0.056 0.801 0.167 1.002 0.134 0.2 0.378 0.301 0.735 0.301 0.111 0 0.245 0 0.401 0s0.334-0.022 0.534-0.067v2.638c-0.134 0.045-0.312 0.089-0.534 0.134-0.2 0.067-0.412 0.122-0.634 0.167s-0.445 0.078-0.668 0.1c-0.223 0.022-0.412 0.033-0.568 0.033-0.779 0-1.425-0.156-1.937-0.467s-0.846-0.857-1.002-1.636c-0.757 0.735-1.692 1.269-2.805 1.603-1.091 0.334-2.148 0.501-3.172 0.501-0.779 0-1.525-0.111-2.237-0.334-0.712-0.2-1.347-0.501-1.903-0.902-0.534-0.423-0.968-0.946-1.302-1.569-0.312-0.646-0.467-1.391-0.467-2.237 0-1.069 0.189-1.937 0.568-2.605 0.401-0.668 0.913-1.191 1.536-1.569 0.646-0.378 1.358-0.646 2.137-0.801 0.801-0.178 1.603-0.312 2.404-0.401 0.69-0.134 1.347-0.223 1.97-0.267 0.623-0.067 1.169-0.167 1.636-0.301 0.49-0.134 0.868-0.334 1.135-0.601 0.289-0.289 0.434-0.712 0.434-1.269 0-0.49-0.122-0.89-0.367-1.202-0.223-0.312-0.512-0.545-0.868-0.701-0.334-0.178-0.712-0.289-1.135-0.334-0.423-0.067-0.824-0.1-1.202-0.1-1.069 0-1.948 0.223-2.638 0.668s-1.080 1.135-1.169 2.070h-3.807c0.067-1.113 0.334-2.037 0.801-2.771s1.057-1.325 1.77-1.77c0.735-0.445 1.558-0.757 2.471-0.935s1.848-0.267 2.805-0.267c0.846 0 1.681 0.089 2.504 0.267s1.558 0.467 2.204 0.868c0.668 0.401 1.202 0.924 1.603 1.569 0.401 0.623 0.601 1.391 0.601 2.304v8.882zM34.694 16.395c-0.579 0.378-1.291 0.612-2.137 0.701-0.846 0.067-1.692 0.178-2.538 0.334-0.401 0.067-0.79 0.167-1.169 0.301-0.378 0.111-0.712 0.278-1.002 0.501-0.289 0.2-0.523 0.479-0.701 0.835-0.156 0.334-0.234 0.746-0.234 1.235 0 0.423 0.122 0.779 0.367 1.069s0.534 0.523 0.868 0.701c0.356 0.156 0.735 0.267 1.135 0.334 0.423 0.067 0.801 0.1 1.135 0.1 0.423 0 0.879-0.056 1.369-0.167s0.946-0.301 1.369-0.568c0.445-0.267 0.813-0.601 1.102-1.002 0.289-0.423 0.434-0.935 0.434-1.536v-2.838zM41.929 7.78h3.606v2.538l0.067 0.067c0.579-0.957 1.336-1.703 2.271-2.237 0.935-0.557 1.97-0.835 3.105-0.835 1.892 0 3.384 0.49 4.474 1.469s1.636 2.449 1.636 4.408v11.854h-3.807v-10.852c-0.045-1.358-0.334-2.337-0.868-2.938-0.534-0.623-1.369-0.935-2.504-0.935-0.646 0-1.224 0.122-1.736 0.367-0.512 0.223-0.946 0.545-1.302 0.968-0.356 0.401-0.634 0.879-0.835 1.436s-0.301 1.146-0.301 1.77v10.184h-3.807v-17.263zM60.435 7.78h3.606v2.538l0.067 0.067c0.579-0.957 1.336-1.703 2.271-2.237 0.935-0.557 1.97-0.835 3.105-0.835 1.892 0 3.384 0.49 4.474 1.469s1.636 2.449 1.636 4.408v11.854h-3.807v-10.852c-0.045-1.358-0.334-2.337-0.868-2.938-0.534-0.623-1.369-0.935-2.504-0.935-0.646 0-1.224 0.122-1.736 0.367-0.512 0.223-0.946 0.545-1.302 0.968-0.356 0.401-0.634 0.879-0.835 1.436s-0.301 1.146-0.301 1.77v10.184h-3.807v-17.263zM77.038 7.78h4.174l4.508 12.889h0.067l4.374-12.889h3.974l-6.712 18.198c-0.312 0.779-0.623 1.525-0.935 2.237-0.289 0.712-0.657 1.336-1.102 1.87-0.423 0.557-0.957 0.991-1.603 1.302-0.646 0.334-1.469 0.501-2.471 0.501-0.89 0-1.77-0.067-2.638-0.2v-3.206c0.312 0.045 0.612 0.089 0.902 0.134 0.289 0.067 0.59 0.1 0.902 0.1 0.445 0 0.813-0.056 1.102-0.167s0.523-0.278 0.701-0.501c0.2-0.2 0.367-0.445 0.501-0.735s0.256-0.623 0.367-1.002l0.434-1.336-6.545-17.197zM92.823 20.536h4.641v4.508h-4.641v-4.508zM104.421 17.096c0 0.913 0.156 1.692 0.467 2.337s0.746 1.18 1.302 1.603c0.557 0.401 1.191 0.701 1.903 0.902 0.735 0.178 1.525 0.267 2.371 0.267 0.913 0 1.692-0.1 2.337-0.301 0.646-0.223 1.169-0.501 1.569-0.835s0.69-0.712 0.868-1.135c0.178-0.445 0.267-0.89 0.267-1.336 0-0.913-0.211-1.581-0.634-2.003-0.401-0.445-0.846-0.757-1.336-0.935-0.846-0.312-1.837-0.601-2.972-0.868-1.113-0.289-2.493-0.657-4.141-1.102-1.024-0.267-1.881-0.612-2.571-1.035-0.668-0.445-1.202-0.935-1.603-1.469s-0.69-1.102-0.868-1.703c-0.156-0.601-0.234-1.213-0.234-1.837 0-1.202 0.245-2.237 0.735-3.105 0.512-0.89 1.18-1.625 2.003-2.204s1.759-1.002 2.805-1.269c1.046-0.289 2.104-0.434 3.172-0.434 1.247 0 2.415 0.167 3.506 0.501 1.113 0.312 2.081 0.79 2.905 1.436 0.846 0.646 1.514 1.447 2.003 2.404 0.49 0.935 0.735 2.026 0.735 3.272h-4.174c-0.111-1.536-0.634-2.616-1.569-3.239-0.935-0.646-2.126-0.968-3.573-0.968-0.49 0-0.991 0.056-1.503 0.167-0.512 0.089-0.979 0.256-1.402 0.501-0.423 0.223-0.779 0.534-1.069 0.935-0.267 0.401-0.401 0.902-0.401 1.503 0 0.846 0.256 1.514 0.768 2.003 0.534 0.467 1.224 0.824 2.070 1.069 0.089 0.022 0.434 0.122 1.035 0.301 0.623 0.156 1.313 0.334 2.070 0.534s1.491 0.401 2.204 0.601c0.735 0.178 1.258 0.312 1.569 0.401 0.779 0.245 1.458 0.579 2.037 1.002s1.057 0.913 1.436 1.469c0.401 0.534 0.69 1.113 0.868 1.736 0.2 0.623 0.301 1.247 0.301 1.87 0 1.336-0.278 2.482-0.835 3.439-0.534 0.935-1.247 1.703-2.137 2.304s-1.903 1.035-3.039 1.302c-1.135 0.289-2.293 0.434-3.473 0.434-1.358 0-2.638-0.167-3.84-0.501s-2.248-0.846-3.139-1.536c-0.89-0.69-1.603-1.569-2.137-2.638-0.534-1.091-0.813-2.371-0.835-3.84h4.174zM133.987 14.893c-0.045-0.601-0.178-1.18-0.401-1.736-0.2-0.557-0.49-1.035-0.868-1.436-0.356-0.423-0.801-0.757-1.336-1.002-0.512-0.267-1.091-0.401-1.736-0.401-0.668 0-1.28 0.122-1.837 0.367-0.534 0.223-1.002 0.545-1.402 0.968-0.378 0.401-0.69 0.879-0.935 1.436-0.223 0.557-0.345 1.158-0.367 1.803h8.882zM125.105 17.397c0 0.668 0.089 1.313 0.267 1.937 0.2 0.623 0.49 1.169 0.868 1.636s0.857 0.846 1.436 1.135c0.579 0.267 1.269 0.401 2.070 0.401 1.113 0 2.003-0.234 2.671-0.701 0.69-0.49 1.202-1.213 1.536-2.17h3.606c-0.2 0.935-0.545 1.77-1.035 2.504s-1.080 1.358-1.77 1.87c-0.69 0.49-1.469 0.857-2.337 1.102-0.846 0.267-1.736 0.401-2.671 0.401-1.358 0-2.56-0.223-3.606-0.668s-1.937-1.069-2.671-1.87c-0.712-0.801-1.258-1.759-1.636-2.872-0.356-1.113-0.534-2.337-0.534-3.673 0-1.224 0.189-2.382 0.568-3.473 0.401-1.113 0.957-2.081 1.67-2.905 0.735-0.846 1.614-1.514 2.638-2.003s2.182-0.735 3.473-0.735c1.358 0 2.571 0.289 3.64 0.868 1.091 0.557 1.992 1.302 2.705 2.237s1.224 2.015 1.536 3.239c0.334 1.202 0.423 2.449 0.267 3.74h-12.689zM140.019 7.78h3.573v3.339h0.067c0.111-0.467 0.323-0.924 0.634-1.369 0.334-0.445 0.723-0.846 1.169-1.202 0.467-0.378 0.979-0.679 1.536-0.902s1.124-0.334 1.703-0.334c0.445 0 0.746 0.011 0.902 0.033 0.178 0.022 0.356 0.045 0.534 0.067v3.673c-0.267-0.045-0.545-0.078-0.835-0.1-0.267-0.045-0.534-0.067-0.801-0.067-0.646 0-1.258 0.134-1.837 0.401-0.557 0.245-1.046 0.623-1.469 1.135-0.423 0.49-0.757 1.102-1.002 1.837s-0.367 1.581-0.367 2.538v8.214h-3.807v-17.263zM149.389 7.78h4.141l4.374 13.256h0.067l4.207-13.256h3.94l-6.177 17.263h-4.274l-6.278-17.263zM167.839 1.202h3.807v3.606h-3.807v-3.606zM167.839 7.78h3.807v17.263h-3.807v-17.263zM186.778 13.557c-0.156-1.069-0.59-1.87-1.302-2.404-0.69-0.557-1.569-0.835-2.638-0.835-0.49 0-1.013 0.089-1.569 0.267-0.557 0.156-1.069 0.467-1.536 0.935-0.467 0.445-0.857 1.080-1.169 1.903-0.312 0.801-0.467 1.859-0.467 3.172 0 0.712 0.078 1.425 0.234 2.137 0.178 0.712 0.445 1.347 0.801 1.903 0.378 0.557 0.857 1.013 1.436 1.369 0.579 0.334 1.28 0.501 2.104 0.501 1.113 0 2.026-0.345 2.738-1.035 0.735-0.69 1.191-1.658 1.369-2.905h3.807c-0.356 2.248-1.213 3.974-2.571 5.176-1.336 1.18-3.117 1.77-5.343 1.77-1.358 0-2.56-0.223-3.606-0.668-1.024-0.467-1.892-1.091-2.605-1.87-0.712-0.801-1.258-1.747-1.636-2.838-0.356-1.091-0.534-2.271-0.534-3.539 0-1.291 0.178-2.504 0.534-3.64s0.89-2.115 1.603-2.938c0.712-0.846 1.592-1.503 2.638-1.97 1.069-0.49 2.315-0.735 3.74-0.735 1.002 0 1.948 0.134 2.838 0.401 0.913 0.245 1.714 0.623 2.404 1.135 0.712 0.512 1.291 1.158 1.736 1.937s0.712 1.703 0.801 2.771h-3.807zM204.865 14.893c-0.045-0.601-0.178-1.18-0.401-1.736-0.2-0.557-0.49-1.035-0.868-1.436-0.356-0.423-0.801-0.757-1.336-1.002-0.512-0.267-1.091-0.401-1.736-0.401-0.668 0-1.28 0.122-1.837 0.367-0.534 0.223-1.002 0.545-1.402 0.968-0.378 0.401-0.69 0.879-0.935 1.436-0.223 0.557-0.345 1.158-0.367 1.803h8.882zM195.983 17.397c0 0.668 0.089 1.313 0.267 1.937 0.2 0.623 0.49 1.169 0.868 1.636s0.857 0.846 1.436 1.135c0.579 0.267 1.269 0.401 2.070 0.401 1.113 0 2.003-0.234 2.671-0.701 0.69-0.49 1.202-1.213 1.536-2.17h3.606c-0.2 0.935-0.545 1.77-1.035 2.504s-1.080 1.358-1.77 1.87c-0.69 0.49-1.469 0.857-2.337 1.102-0.846 0.267-1.736 0.401-2.671 0.401-1.358 0-2.56-0.223-3.606-0.668s-1.937-1.069-2.671-1.87c-0.712-0.801-1.258-1.759-1.636-2.872-0.356-1.113-0.534-2.337-0.534-3.673 0-1.224 0.189-2.382 0.568-3.473 0.401-1.113 0.957-2.081 1.67-2.905 0.735-0.846 1.614-1.514 2.638-2.003s2.182-0.735 3.473-0.735c1.358 0 2.571 0.289 3.64 0.868 1.091 0.557 1.992 1.302 2.705 2.237s1.224 2.015 1.536 3.239c0.334 1.202 0.423 2.449 0.267 3.74h-12.689zM213.77 19.501c0.111 1.113 0.534 1.892 1.269 2.337s1.614 0.668 2.638 0.668c0.356 0 0.757-0.022 1.202-0.067 0.467-0.067 0.902-0.178 1.302-0.334s0.723-0.378 0.968-0.668c0.267-0.312 0.39-0.712 0.367-1.202s-0.2-0.89-0.534-1.202c-0.334-0.312-0.768-0.557-1.302-0.735-0.512-0.2-1.102-0.367-1.77-0.501s-1.347-0.278-2.037-0.434c-0.712-0.156-1.402-0.345-2.070-0.568-0.646-0.223-1.235-0.523-1.77-0.902-0.512-0.378-0.924-0.857-1.235-1.436-0.312-0.601-0.467-1.336-0.467-2.204 0-0.935 0.223-1.714 0.668-2.337 0.467-0.646 1.046-1.158 1.736-1.536 0.712-0.401 1.491-0.679 2.337-0.835 0.868-0.156 1.692-0.234 2.471-0.234 0.89 0 1.736 0.1 2.538 0.301 0.824 0.178 1.558 0.479 2.204 0.902 0.668 0.423 1.213 0.979 1.636 1.67 0.445 0.668 0.723 1.48 0.835 2.438h-3.974c-0.178-0.913-0.601-1.525-1.269-1.837-0.646-0.312-1.391-0.467-2.237-0.467-0.267 0-0.59 0.022-0.968 0.067-0.356 0.045-0.701 0.134-1.035 0.267-0.312 0.111-0.579 0.289-0.801 0.534-0.223 0.223-0.334 0.523-0.334 0.902 0 0.467 0.156 0.846 0.467 1.135 0.334 0.289 0.757 0.534 1.269 0.735 0.534 0.178 1.135 0.334 1.803 0.467s1.358 0.278 2.070 0.434c0.69 0.156 1.369 0.345 2.037 0.568s1.258 0.523 1.77 0.902c0.534 0.378 0.957 0.857 1.269 1.436 0.334 0.579 0.501 1.291 0.501 2.137 0 1.024-0.234 1.892-0.701 2.605s-1.080 1.291-1.837 1.736c-0.735 0.445-1.558 0.768-2.471 0.968s-1.814 0.301-2.705 0.301c-1.091 0-2.104-0.122-3.039-0.367-0.913-0.245-1.714-0.612-2.404-1.102-0.668-0.512-1.202-1.135-1.603-1.87-0.378-0.757-0.579-1.647-0.601-2.671h3.807z"></path>
</symbol>
</defs></svg>